Coordinates
version=1
nRows=8
nColumns=42
inDegrees=yes

Units are S.I. units (second, meters, Newtons, ...)
If the header above contains a line with 'inDegrees', this indicates whether rotational values are in degrees (yes) or radians (no).

endheader
time	pelvis_tilt	pelvis_list	pelvis_rotation	pelvis_tx	pelvis_ty	pelvis_tz	hip_flexion_r	hip_adduction_r	hip_rotation_r	knee_angle_r	knee_adduction_r	knee_angle_r_beta	ankle_angle_r	subtalar_angle_r	mtp_angle_r	hip_flexion_l	hip_adduction_l	hip_rotation_l	knee_angle_l	knee_adduction_l	knee_angle_l_beta	ankle_angle_l	subtalar_angle_l	mtp_angle_l	lumbar_extension	lumbar_bending	lumbar_rotation	arm_flex_r	arm_add_r	arm_rot_r	elbow_flex_r	pro_sup_r	wrist_flex_r	wrist_dev_r	arm_flex_l	arm_add_l	arm_rot_l	elbow_flex_l	pro_sup_l	wrist_flex_l	wrist_dev_l
      1.45000000	      8.10565584	     -1.47888233	     10.65720331	     -0.15889491	      0.87641443	      0.19745747	     -5.01351131	      9.11348694	      0.80017225	     14.31556583	      1.65766697	      0.24985376	     20.34665646	    -11.90149056	     -7.58679088	     18.19997081	      1.90162075	      3.17709511	     52.59666756	     -8.03190375	      0.91798502	     15.21300343	    -15.52364043	     -7.58679088	    -37.09289595	      7.07639196	     -4.12256946	     18.23155282	    -14.16674568	      3.61721411	     41.96146793	     90.00000001	      0.00000000	      0.00000000	     10.98014245	    -12.22264021	     -6.83552251	     31.57642576	     90.00000001	      0.00000000	      0.00000000
      1.46000000	      8.11761629	     -1.47432652	     10.67187197	     -0.15064700	      0.87586440	      0.19730906	     -5.78969848	      9.29921520	      1.09308709	     14.07427118	      1.53566693	      0.24564237	     20.67906050	    -11.89863224	     -7.58351915	     18.84093701	      2.06119086	      3.36080407	     50.45415512	     -7.57518502	      0.88059113	     15.00147969	    -15.19895817	     -7.58351915	    -37.01278185	      7.10464599	     -4.12631486	     18.81299240	    -14.35481740	      3.96278801	     42.36446288	     90.00000001	      0.00000000	      0.00000000	     10.62755273	    -12.06927878	     -7.23990619	     31.14746938	     90.00000001	      0.00000000	      0.00000000
      1.47000000	      7.94805238	     -1.65512152	     10.64947443	     -0.14260302	      0.87462548	      0.19734008	     -6.13736542	      9.72794402	      1.06006394	     14.16711201	      1.21593663	      0.24726275	     21.19773044	    -11.72599780	     -7.58199663	     19.85232469	      1.98326237	      3.36084071	     48.47308032	     -7.17860554	      0.84601485	     14.85711259	    -14.58924631	     -7.58199663	    -36.72458723	      7.26046276	     -4.01937807	     19.41400298	    -14.50861182	      4.06572348	     42.75463511	     90.00000001	      0.00000000	      0.00000000	     10.16022568	    -11.94156978	     -7.34097916	     30.94345037	     90.00000001	      0.00000000	      0.00000000
      1.48000000	      8.15072544	     -1.51709379	     10.54571651	     -0.13418167	      0.87439562	      0.19703345	     -7.25531582	      9.63701115	      1.41522159	     13.76448401	      1.38007941	      0.24023557	     21.62245441	    -11.60909110	     -7.57871146	     19.96562002	      2.18240559	      3.51234269	     45.83013753	     -6.54577176	      0.79988680	     14.59466853	    -14.32901569	     -7.57871146	    -36.87415194	      7.16683724	     -4.01839885	     20.05600680	    -14.71943795	      4.61921332	     43.15468292	     90.00000001	      0.00000000	      0.00000000	      9.89541269	    -11.76684485	     -7.97712942	     30.41707763	     90.00000001	      0.00000000	      0.00000000
      1.49000000	      8.02896780	     -1.69007779	     10.47832786	     -0.12608308	      0.87307855	      0.19704841	     -7.68636804	     10.03934586	      1.43678422	     13.83353484	      1.09569616	      0.24144073	     22.19600835	    -11.45626621	     -7.57702250	     20.78189599	      1.99059666	      3.33541292	     43.57730087	     -6.01426296	      0.76056738	     14.41170054	    -13.66628024	     -7.57702250	    -36.65036650	      7.31215340	     -3.88367145	     20.63950702	    -14.83249268	      4.79238320	     43.52587711	     90.00000001	      0.00000000	      0.00000000	      9.48847240	    -11.63465749	     -8.15876317	     30.24794980	     90.00000001	      0.00000000	      0.00000000
      1.50000000	      8.24461528	     -1.57397653	     10.35056807	     -0.11759306	      0.87265995	      0.19666440	     -8.83525944	      9.96574284	      1.75915679	     13.41100727	      1.22779968	      0.23406623	     22.60642011	    -11.25036386	     -7.57376751	     20.76399645	      2.11316846	      3.08253401	     40.71479106	     -5.57322236	      0.71060716	     14.20236471	    -13.09195696	     -7.57376751	    -36.81398878	      7.23044326	     -3.86364856	     21.25906719	    -15.03860687	      5.32536072	     43.89531387	     90.00000001	      0.00000000	      0.00000000	      9.20754594	    -11.47272227	     -8.81069238	     29.89756292	     90.00000001	      0.00000000	      0.00000000
      1.51000000	      8.30986058	     -1.59753036	     10.20245514	     -0.10930070	      0.87174303	      0.19640474	     -9.65442979	     10.08329897	      1.97548811	     13.23002634	      1.19898153	      0.23090752	     23.08818202	    -11.07947573	     -7.57083949	     21.02716634	      2.02103855	      2.63300811	     38.01591772	     -5.10540432	      0.66350293	     14.10330219	    -12.23085469	     -7.57083949	    -36.82735040	      7.25298667	     -3.75480371	     21.88079659	    -15.20768345	      5.67491891	     44.22889296	     90.00000001	      0.00000000	      0.00000000	      8.91816952	    -11.31390035	     -9.22819652	     29.70292763	     90.00000001	      0.00000000	      0.00000000
      1.52000000	      8.40394836	     -1.65799444	     10.07384783	     -0.10088610	      0.87075363	      0.19613698	    -10.58549948	     10.25346716	      2.24041410	     12.89288061	      1.15620470	      0.22502322	     23.47838437	    -10.90698980	     -7.56676236	     21.23454059	      1.85489594	      1.95127289	     35.33724732	     -4.69584036	      0.61675131	     13.99067129	    -11.12657483	     -7.56676236	    -36.84086110	      7.31584654	     -3.63623974	     22.46599782	    -15.33367343	      6.05987234	     44.56531085	     90.00000001	      0.00000000	      0.00000000	      8.60771714	    -11.16368825	     -9.70713949	     29.57681034	     90.00000001	      0.00000000	      0.00000000
